<svg role="img" xmlns="http://www.w3.org/2000/svg" viewBox="0 0 29 29"><title>Simple Icons icon</title><circle cx="14.5" cy="14.5" r="14.5" fill="#fff"/><path d="M14.5 1.5c-3.312 0-6 2.688-6 6s2.688 6 6 6c1.066 0 2.117.286 3.037.826 2.858 1.678 3.817 5.354 2.14 8.213h1.68a7.492 7.492 0 0 0 .64-3.03c.004-4.144-3.355-7.505-7.497-7.51-2.484 0-4.5-2.016-4.5-4.5S12.016 3 14.5 3 19 5.016 19 7.5h1.5c0-3.312-2.688-6-6-6zm0 3c-1.597.04-2.88 1.326-2.922 2.922-.043 1.658 1.265 3.035 2.922 3.078 1.597-.04 2.88-1.326 2.922-2.922.043-1.658-1.266-3.035-2.922-3.078zm0 1.5c.828 0 1.5.672 1.5 1.5v.002c0 .828-.672 1.5-1.5 1.5-.83 0-1.5-.673-1.5-1.502 0-.83.67-1.5 1.5-1.5zM10 16.5V18h1.5v6H7v1.5h15V24h-4.5v-6H19v-1.5zm3 1.5h3v6h-3zm-6 1.47v.03a7.418 7.418 0 0 0 .645 3.04h1.683C8.8 21.646 8.5 20.61 8.5 19.5v-.03z"/></svg>